<?xml version="1.0" standalone="no"?>
<!DOCTYPE svg PUBLIC "-//W3C//DTD SVG 20010904//EN"
 "http://www.w3.org/TR/2001/REC-SVG-20010904/DTD/svg10.dtd">
<svg version="1.0" xmlns="http://www.w3.org/2000/svg"
 width="1413.000000pt" height="1413.000000pt" viewBox="0 0 1413.000000 1413.000000"
 preserveAspectRatio="xMidYMid meet">
<metadata>
Created by potrace 1.11, written by Peter Selinger 2001-2013
</metadata>
<g transform="translate(0.000000,1413.000000) scale(0.100000,-0.100000)"
fill="#000000" stroke="none">
<path d="M9985 10610 c-498 -24 -1028 -114 -1593 -271 -117 -33 -369 -114
-444 -144 -17 -7 -18 -52 -18 -746 l0 -739 83 0 84 0 119 67 c443 248 963 422
1459 489 274 37 717 16 962 -46 197 -50 373 -150 464 -263 91 -115 113 -197
106 -392 -9 -228 -45 -325 -166 -445 -220 -217 -531 -280 -1383 -280 l-328 0
0 -610 0 -610 448 0 c658 0 858 -17 1070 -91 233 -82 389 -237 447 -444 23
-81 31 -319 15 -427 -27 -190 -86 -308 -219 -438 -196 -193 -423 -285 -806
-325 -554 -58 -957 -10 -1535 184 -286 96 -565 218 -762 332 -65 38 -69 39
-162 39 l-96 0 0 -744 0 -745 103 -39 c307 -119 750 -239 1088 -296 570 -97
1349 -121 1889 -60 463 52 819 156 1179 345 546 286 878 683 1036 1234 105
367 103 861 -5 1158 -90 247 -306 507 -554 671 -176 116 -431 218 -666 266
-58 11 -115 23 -128 26 -19 4 -23 10 -20 36 3 30 6 32 92 55 515 136 928 525
1096 1032 91 273 109 529 60 826 -69 412 -303 738 -702 982 -347 211 -893 359
-1483 403 -200 14 -542 19 -730 10z"/>
<path d="M3475 10603 c-537 -42 -931 -153 -1278 -356 -533 -314 -896 -854
-1083 -1612 -201 -814 -217 -2050 -38 -2955 214 -1085 753 -1741 1654 -2013
345 -104 817 -152 1262 -129 369 20 636 65 900 152 781 257 1284 842 1512
1758 115 460 164 880 173 1492 19 1201 -162 2056 -562 2655 -407 611 -1032
940 -1910 1005 -126 9 -530 11 -630 3z m431 -1258 c34 -3 91 -14 128 -25 409
-117 632 -498 725 -1240 40 -315 46 -450 46 -995 0 -545 -6 -680 -46 -995 -70
-556 -219 -927 -448 -1117 -220 -181 -555 -234 -849 -134 -107 37 -180 81
-264 160 -89 83 -144 157 -206 278 -193 376 -285 1048 -269 1963 23 1245 207
1818 652 2031 94 45 175 67 288 79 80 7 118 7 243 -5z"/>
<path d="M3313 6860 c-302 -32 -473 -213 -473 -502 0 -104 14 -176 47 -243 57
-114 143 -185 279 -231 62 -21 105 -27 199 -31 129 -5 211 7 318 47 l57 21 0
135 c0 130 -1 134 -21 134 -12 0 -37 -14 -57 -31 -20 -18 -61 -44 -92 -58 -47
-22 -69 -26 -150 -26 -79 0 -102 4 -137 22 -82 44 -123 128 -123 252 0 108 21
173 75 226 54 54 99 68 201 63 86 -4 153 -30 231 -89 67 -51 73 -42 73 109 l0
130 -49 21 c-103 44 -251 64 -378 51z"/>
</g>
</svg>
